<?xml version="1.0" standalone="no"?>
<svg xmlns:xlink="http://www.w3.org/1999/xlink" id="wave" style="transform:rotate(0deg); transition: 0.3s" viewBox="0 0 1440 330" version="1.1" xmlns="http://www.w3.org/2000/svg"><defs><linearGradient id="sw-gradient-0" x1="0" x2="0" y1="1" y2="0"><stop stop-color="rgba(213, 137, 67, 1)" offset="0%"/><stop stop-color="rgba(213, 137, 67, 1)" offset="100%"/></linearGradient></defs><path style="transform:translate(0, 0px); opacity:1" fill="url(#sw-gradient-0)" d="M0,99L30,121C60,143,120,187,180,176C240,165,300,99,360,88C420,77,480,121,540,165C600,209,660,253,720,247.5C780,242,840,187,900,143C960,99,1020,66,1080,82.5C1140,99,1200,165,1260,187C1320,209,1380,187,1440,148.5C1500,110,1560,55,1620,38.5C1680,22,1740,44,1800,49.5C1860,55,1920,44,1980,71.5C2040,99,2100,165,2160,181.5C2220,198,2280,165,2340,176C2400,187,2460,242,2520,225.5C2580,209,2640,121,2700,82.5C2760,44,2820,55,2880,71.5C2940,88,3000,110,3060,121C3120,132,3180,132,3240,148.5C3300,165,3360,198,3420,176C3480,154,3540,77,3600,49.5C3660,22,3720,44,3780,93.5C3840,143,3900,220,3960,253C4020,286,4080,275,4140,269.5C4200,264,4260,264,4290,264L4320,264L4320,330L4290,330C4260,330,4200,330,4140,330C4080,330,4020,330,3960,330C3900,330,3840,330,3780,330C3720,330,3660,330,3600,330C3540,330,3480,330,3420,330C3360,330,3300,330,3240,330C3180,330,3120,330,3060,330C3000,330,2940,330,2880,330C2820,330,2760,330,2700,330C2640,330,2580,330,2520,330C2460,330,2400,330,2340,330C2280,330,2220,330,2160,330C2100,330,2040,330,1980,330C1920,330,1860,330,1800,330C1740,330,1680,330,1620,330C1560,330,1500,330,1440,330C1380,330,1320,330,1260,330C1200,330,1140,330,1080,330C1020,330,960,330,900,330C840,330,780,330,720,330C660,330,600,330,540,330C480,330,420,330,360,330C300,330,240,330,180,330C120,330,60,330,30,330L0,330Z"/></svg>