<svg xmlns="http://www.w3.org/2000/svg" version="1.1" xmlns:xlink="http://www.w3.org/1999/xlink" xmlns:svgjs="http://svgjs.com/svgjs" width="1440" height="560" preserveAspectRatio="none" viewBox="0 0 1440 560"><g mask="url(&quot;#SvgjsMask1045&quot;)" fill="none"><rect width="1440" height="560" x="0" y="0" fill="url(#SvgjsLinearGradient1046)"></rect><path d="M 0,109 C 96,91.2 288,22.8 480,20 C 672,17.2 768,90.6 960,95 C 1152,99.4 1344,52.6 1440,42L1440 560L0 560z" fill="rgba(10, 10, 6, 1)"></path><path d="M 0,277 C 41.2,284.6 123.6,321.8 206,315 C 288.4,308.2 329.6,247.2 412,243 C 494.4,238.8 535.6,287.8 618,294 C 700.4,300.2 741.6,274.4 824,274 C 906.4,273.6 947.6,291.8 1030,292 C 1112.4,292.2 1154,262.6 1236,275 C 1318,287.4 1399.2,338.2 1440,354L1440 560L0 560z" fill="rgba(24, 24, 24, 1)"></path><path d="M 0,374 C 57.6,408.8 172.8,536 288,548 C 403.2,560 460.8,433.2 576,434 C 691.2,434.8 748.8,548.2 864,552 C 979.2,555.8 1036.8,465.4 1152,453 C 1267.2,440.6 1382.4,482.6 1440,490L1440 560L0 560z" fill="rgba(41, 40, 40, 1)"></path></g><defs><mask id="SvgjsMask1045"><rect width="1440" height="560" fill="#ffffff"></rect></mask><linearGradient x1="15.28%" y1="-39.29%" x2="84.72%" y2="139.29%" gradientUnits="userSpaceOnUse" id="SvgjsLinearGradient1046"><stop stop-color="#0e2a47" offset="0"></stop><stop stop-color="rgba(0, 0, 0, 1)" offset="1"></stop></linearGradient></defs></svg>