<svg xmlns="http://www.w3.org/2000/svg" version="1.1" xmlns:xlink="http://www.w3.org/1999/xlink" xmlns:svgjs="http://svgjs.com/svgjs" width="1440" height="560" preserveAspectRatio="none" viewBox="0 0 1440 560"><g mask="url(&quot;#SvgjsMask1017&quot;)" fill="none"><rect width="1440" height="560" x="0" y="0" fill="rgba(0, 0, 0, 0.95)"></rect><path d="M72.21 87.25a19.68 19.68 0 1 0 14.18-36.72z" fill="rgba(26, 27, 31, 1)"></path><path d="M1325.87 39.75L1350.5 39.75L1350.5 64.38L1325.87 64.38z" fill="rgba(26, 27, 31, 1)"></path><path d="M988.5 496.51L1029.36 496.51L1029.36 518.49L988.5 518.49z" fill="rgba(26, 27, 31, 1)"></path><path d="M527.68 216.37a7.71 7.71 0 1 0 9.5-12.15z" stroke="rgba(33, 33, 33, 1)"></path><path d="M1305.03 204.51L1314.62 204.51L1314.62 214.1L1305.03 214.1z" fill="rgba(26, 27, 31, 1)"></path><path d="M177.17 64.98L192.18 64.98L192.18 78.38L177.17 78.38z" stroke="rgba(26, 27, 31, 1)"></path><path d="M683.57 444.54L686.31 444.54L686.31 448.65L683.57 448.65z" stroke="rgba(26, 27, 31, 1)"></path><path d="M12.53 199.14L50.17 199.14L50.17 202L12.53 202z" fill="rgba(33, 33, 33, 1)"></path><path d="M1302.57 133.44 a15.7 15.7 0 1 0 31.4 0 a15.7 15.7 0 1 0 -31.4 0z" fill="rgba(33, 33, 33, 1)"></path><path d="M889.31 172.13L944.39 172.13L944.39 227.21L889.31 227.21z" stroke="rgba(33, 33, 33, 1)"></path><path d="M467.35 465.58a46.56 46.56 0 1 0-83.79-40.62z" fill="rgba(26, 27, 31, 1)"></path><path d="M568.52 477.85a43.24 43.24 0 1 0 77.5 38.38z" fill="rgba(33, 33, 33, 1)"></path><path d="M122.95 486.7 a28.42 28.42 0 1 0 56.84 0 a28.42 28.42 0 1 0 -56.84 0z" fill="rgba(33, 33, 33, 1)"></path><path d="M777.42 441.6 a52.96 52.96 0 1 0 105.92 0 a52.96 52.96 0 1 0 -105.92 0z" fill="rgba(26, 27, 31, 1)"></path><path d="M519.13 450.7L561.32 450.7L561.32 493.29L519.13 493.29z" stroke="rgba(26, 27, 31, 1)"></path><path d="M687.8 138.51L730.43 138.51L730.43 165.79L687.8 165.79z" stroke="rgba(26, 27, 31, 1)"></path><path d="M329.46 106.15 a34.97 34.97 0 1 0 69.94 0 a34.97 34.97 0 1 0 -69.94 0z" fill="rgba(26, 27, 31, 1)"></path><path d="M1134.91 127.83 a8.3 8.3 0 1 0 16.6 0 a8.3 8.3 0 1 0 -16.6 0z" fill="rgba(26, 27, 31, 1)"></path><path d="M932.72 149.36L959.61 149.36L959.61 152.95L932.72 152.95z" fill="rgba(26, 27, 31, 1)"></path><path d="M564.36 180.46L590.26 180.46L590.26 206.36L564.36 206.36z" stroke="rgba(33, 33, 33, 1)"></path><path d="M1091.68 297.54L1109.13 297.54L1109.13 330.92L1091.68 330.92z" stroke="rgba(26, 27, 31, 1)"></path><path d="M1221.62 556.95 a32.77 32.77 0 1 0 65.54 0 a32.77 32.77 0 1 0 -65.54 0z" stroke="rgba(33, 33, 33, 1)"></path><path d="M697.54 80.86a27.79 27.79 0 1 0 49.94-24.4z" stroke="rgba(33, 33, 33, 1)"></path><path d="M207.54 261.77 a34.1 34.1 0 1 0 68.2 0 a34.1 34.1 0 1 0 -68.2 0z" stroke="rgba(33, 33, 33, 1)"></path><path d="M386.16 28.7L386.26 28.7L386.26 28.8L386.16 28.8z" stroke="rgba(26, 27, 31, 1)"></path><path d="M707.37 489.33L757.97 489.33L757.97 537.93L707.37 537.93z" stroke="rgba(26, 27, 31, 1)"></path><path d="M1106.98 250.06L1116.57 250.06L1116.57 252.22L1106.98 252.22z" fill="rgba(26, 27, 31, 1)"></path><path d="M912.92 425.11 a0.1 0.1 0 1 0 0.2 0 a0.1 0.1 0 1 0 -0.2 0z" stroke="rgba(33, 33, 33, 1)"></path><path d="M1179.32 251.2L1189.74 251.2L1189.74 261.62L1179.32 261.62z" fill="rgba(26, 27, 31, 1)"></path><path d="M427.73 141.5L483.18 141.5L483.18 196.95L427.73 196.95z" fill="rgba(26, 27, 31, 1)"></path><path d="M302.03 114.3L303.6 114.3L303.6 145.83L302.03 145.83z" stroke="rgba(33, 33, 33, 1)"></path><path d="M235.29 196.92 a23.74 23.74 0 1 0 47.48 0 a23.74 23.74 0 1 0 -47.48 0z" fill="rgba(26, 27, 31, 1)"></path><path d="M1178.33 285.03a38.12 38.12 0 1 0 69.32-31.74z" fill="rgba(26, 27, 31, 1)"></path></g><defs><mask id="SvgjsMask1017"><rect width="1440" height="560" fill="#ffffff"></rect></mask></defs></svg>