<svg xmlns="http://www.w3.org/2000/svg" version="1.1" xmlns:xlink="http://www.w3.org/1999/xlink" xmlns:svgjs="http://svgjs.com/svgjs" width="1440" height="560" preserveAspectRatio="none" viewBox="0 0 1440 560"><g mask="url(&quot;#SvgjsMask1040&quot;)" fill="none"><rect width="1440" height="560" x="0" y="0" fill="rgba(0, 0, 0, 1)"></rect><path d="M 0,122 C 96,103.4 288,24 480,29 C 672,34 768,150.2 960,147 C 1152,143.8 1344,39.8 1440,13L1440 560L0 560z" fill="rgba(13, 12, 10, 1)"></path><path d="M 0,291 C 96,272 288,184.6 480,196 C 672,207.4 768,337.8 960,348 C 1152,358.2 1344,267.2 1440,247L1440 560L0 560z" fill="rgba(11, 10, 8, 1)"></path><path d="M 0,526 C 96,504.6 288,412.4 480,419 C 672,425.6 768,555.4 960,559 C 1152,562.6 1344,461.4 1440,437L1440 560L0 560z" fill="rgba(1, 3, 2, 1)"></path></g><defs><mask id="SvgjsMask1040"><rect width="1440" height="560" fill="#ffffff"></rect></mask></defs></svg>