<?xml version="1.0" standalone="no"?>
<svg xmlns:xlink="http://www.w3.org/1999/xlink" id="wave" style="transform:rotate(0deg); transition: 0.3s" viewBox="0 0 1440 490" version="1.1" xmlns="http://www.w3.org/2000/svg"><defs><linearGradient id="sw-gradient-0" x1="0" x2="0" y1="1" y2="0"><stop stop-color="rgba(125.65, 121.59, 120.285, 1)" offset="0%"/><stop stop-color="rgba(48.239, 47.937, 47.269, 1)" offset="100%"/></linearGradient></defs><path style="transform:translate(0, 0px); opacity:1" fill="url(#sw-gradient-0)" d="M0,98L26.7,155.2C53.3,212,107,327,160,326.7C213.3,327,267,212,320,204.2C373.3,196,427,294,480,302.2C533.3,310,587,229,640,236.8C693.3,245,747,343,800,359.3C853.3,376,907,310,960,302.2C1013.3,294,1067,343,1120,310.3C1173.3,278,1227,163,1280,106.2C1333.3,49,1387,49,1440,65.3C1493.3,82,1547,114,1600,147C1653.3,180,1707,212,1760,212.3C1813.3,212,1867,180,1920,163.3C1973.3,147,2027,147,2080,179.7C2133.3,212,2187,278,2240,326.7C2293.3,376,2347,408,2400,375.7C2453.3,343,2507,245,2560,171.5C2613.3,98,2667,49,2720,73.5C2773.3,98,2827,196,2880,196C2933.3,196,2987,98,3040,98C3093.3,98,3147,196,3200,220.5C3253.3,245,3307,196,3360,179.7C3413.3,163,3467,180,3520,163.3C3573.3,147,3627,98,3680,138.8C3733.3,180,3787,310,3813,375.7L3840,441L3840,490L3813.3,490C3786.7,490,3733,490,3680,490C3626.7,490,3573,490,3520,490C3466.7,490,3413,490,3360,490C3306.7,490,3253,490,3200,490C3146.7,490,3093,490,3040,490C2986.7,490,2933,490,2880,490C2826.7,490,2773,490,2720,490C2666.7,490,2613,490,2560,490C2506.7,490,2453,490,2400,490C2346.7,490,2293,490,2240,490C2186.7,490,2133,490,2080,490C2026.7,490,1973,490,1920,490C1866.7,490,1813,490,1760,490C1706.7,490,1653,490,1600,490C1546.7,490,1493,490,1440,490C1386.7,490,1333,490,1280,490C1226.7,490,1173,490,1120,490C1066.7,490,1013,490,960,490C906.7,490,853,490,800,490C746.7,490,693,490,640,490C586.7,490,533,490,480,490C426.7,490,373,490,320,490C266.7,490,213,490,160,490C106.7,490,53,490,27,490L0,490Z"/></svg>