<svg xmlns="http://www.w3.org/2000/svg" version="1.1" xmlns:xlink="http://www.w3.org/1999/xlink" xmlns:svgjs="http://svgjs.com/svgjs" width="1440" height="560" preserveAspectRatio="none" viewBox="0 0 1440 560"><g mask="url(&quot;#SvgjsMask1116&quot;)" fill="none"><rect width="1440" height="560" x="0" y="0" fill="#0e2a47"></rect><path d="M287.20560311861954 500.54376323820827L394.6739244952345 548.5145169019509 385.70747718217297 446.0275551437034z" fill="rgba(28, 83, 142, 0.4)" class="triangle-float1"></path><path d="M987.502163177259 308.6430559105642L828.6037734181418 300.3155441716378 820.2762616792154 459.21393393075493 979.1746514383326 467.54144566968137z" fill="rgba(28, 83, 142, 0.4)" class="triangle-float1"></path><path d="M252.10928118430883-27.95961380750789L130.7539765436025 2.2976619329852213 282.36655692480196 93.39569083319843z" fill="rgba(28, 83, 142, 0.4)" class="triangle-float3"></path><path d="M1093.41 188.86 a175.67 175.67 0 1 0 351.34 0 a175.67 175.67 0 1 0 -351.34 0z" fill="rgba(28, 83, 142, 0.4)" class="triangle-float2"></path><path d="M526.6535302330951 95.2012922413774L472.28508692877074 201.90537023840557 578.989164925799 256.27381354272995 633.3576082301233 149.56973554570175z" fill="rgba(28, 83, 142, 0.4)" class="triangle-float3"></path><path d="M472.617,230.429C517.317,230.406,553.53,199.057,576.514,160.719C600.306,121.034,612.849,73.146,591.533,32.078C568.693,-11.926,522.152,-37.385,472.617,-39.45C418.971,-41.686,359.957,-26.249,335.197,21.394C311.578,66.841,340.398,118.028,368.534,160.826C393.108,198.206,427.883,230.452,472.617,230.429" fill="rgba(28, 83, 142, 0.4)" class="triangle-float3"></path><path d="M1309.78 491.64 a105.5 105.5 0 1 0 211 0 a105.5 105.5 0 1 0 -211 0z" fill="rgba(28, 83, 142, 0.4)" class="triangle-float3"></path><path d="M751.2021353287445 475.243663548488L743.0796966231572 552.5235056505287 863.060679129012 526.0672426578892z" fill="rgba(28, 83, 142, 0.4)" class="triangle-float2"></path><path d="M718.58 440.08 a143.14 143.14 0 1 0 286.28 0 a143.14 143.14 0 1 0 -286.28 0z" fill="rgba(28, 83, 142, 0.4)" class="triangle-float1"></path><path d="M152.159,600.712C179.288,601.083,203.615,584.734,216.962,561.112C230.091,537.876,229.341,509.938,216.74,486.412C203.337,461.39,180.534,439.328,152.159,440.131C124.718,440.908,106.247,465.525,93.615,489.898C82.18,511.962,78.747,537.407,90.355,559.38C102.763,582.867,125.598,600.349,152.159,600.712" fill="rgba(28, 83, 142, 0.4)" class="triangle-float1"></path><path d="M1210.191195885235 44.89895978105684L1075.7808988303855-42.38810773029544 988.4938313190331 92.02218932455412 1122.9041283738827 179.3092568359064z" fill="rgba(28, 83, 142, 0.4)" class="triangle-float2"></path><path d="M751.49 250.34 a118.04 118.04 0 1 0 236.08 0 a118.04 118.04 0 1 0 -236.08 0z" fill="rgba(28, 83, 142, 0.4)" class="triangle-float2"></path><path d="M37.729,422.509C60.463,423.52,81.505,410.282,92.817,390.537C104.064,370.905,103.567,346.845,92.323,327.212C81.009,307.457,60.49,294.796,37.729,294.35C14.161,293.888,-9.908,304.039,-20.704,324.995C-30.851,344.691,-20.867,366.982,-9.479,385.987C1.482,404.278,16.426,421.561,37.729,422.509" fill="rgba(28, 83, 142, 0.4)" class="triangle-float2"></path><path d="M394.99073759637577 184.14910265694328L444.3725367264657 108.10780032638839 318.94943526582085 134.76730352685337z" fill="rgba(28, 83, 142, 0.4)" class="triangle-float1"></path><path d="M-66.2919687802073 237.89274293393981L11.158509981844503 372.04090722034766 145.30667426825235 294.59042845829583 67.85619550620055 160.442264171888z" fill="rgba(28, 83, 142, 0.4)" class="triangle-float3"></path><path d="M1065.757,577.152C1091.283,576.668,1119.424,572.65,1132.048,550.458C1144.58,528.428,1134.696,501.6,1120.784,480.415C1108.407,461.569,1088.284,450.458,1065.757,449.513C1041.226,448.484,1015.965,455.168,1002.108,475.437C986.391,498.426,980.194,529.449,994.966,553.056C1009.138,575.703,1039.046,577.658,1065.757,577.152" fill="rgba(28, 83, 142, 0.4)" class="triangle-float3"></path><path d="M1441.27,365.023C1488.988,365.915,1528.376,331.911,1552.16,290.534C1575.854,249.314,1584.53,198.699,1560.434,157.712C1536.609,117.188,1488.234,99.859,1441.27,101.916C1397.896,103.815,1360.208,129.581,1338.908,167.413C1318.031,204.495,1317.765,248.73,1337.338,286.516C1358.741,327.836,1394.744,364.153,1441.27,365.023" fill="rgba(28, 83, 142, 0.4)" class="triangle-float3"></path><path d="M297.20821714733347 504.058711571588L175.54471430852578 412.3786862577116 205.5281918334571 625.7222144103957z" fill="rgba(28, 83, 142, 0.4)" class="triangle-float1"></path><path d="M1311.133,643.283C1345.659,644.321,1380.499,631.251,1398.432,601.729C1416.996,571.169,1416.019,532.037,1397.165,501.656C1379.244,472.777,1345.086,462.592,1311.133,461.051C1273.404,459.339,1229.361,460.505,1210.419,493.18C1191.447,525.907,1211.397,565.329,1232.473,596.741C1250.666,623.856,1278.495,642.302,1311.133,643.283" fill="rgba(28, 83, 142, 0.4)" class="triangle-float1"></path><path d="M370.42 288.72 a130.24 130.24 0 1 0 260.48 0 a130.24 130.24 0 1 0 -260.48 0z" fill="rgba(28, 83, 142, 0.4)" class="triangle-float3"></path></g><defs><mask id="SvgjsMask1116"><rect width="1440" height="560" fill="#ffffff"></rect></mask></defs></svg>