<svg id="visual" viewBox="0 0 900 600" width="900" height="600" xmlns="http://www.w3.org/2000/svg" xmlns:xlink="http://www.w3.org/1999/xlink" version="1.1"><rect x="0" y="0" width="900" height="600" fill="#ffffff"></rect><defs><linearGradient id="grad1_0" x1="33.3%" y1="100%" x2="100%" y2="0%"><stop offset="20%" stop-color="#fff0da" stop-opacity="1"></stop><stop offset="80%" stop-color="#fff0da" stop-opacity="1"></stop></linearGradient></defs><defs><linearGradient id="grad1_1" x1="33.3%" y1="100%" x2="100%" y2="0%"><stop offset="20%" stop-color="#fff0da" stop-opacity="1"></stop><stop offset="80%" stop-color="#fff7ec" stop-opacity="1"></stop></linearGradient></defs><defs><linearGradient id="grad1_2" x1="33.3%" y1="100%" x2="100%" y2="0%"><stop offset="20%" stop-color="#ffffff" stop-opacity="1"></stop><stop offset="80%" stop-color="#fff7ec" stop-opacity="1"></stop></linearGradient></defs><defs><linearGradient id="grad2_0" x1="0%" y1="100%" x2="66.7%" y2="0%"><stop offset="20%" stop-color="#fff0da" stop-opacity="1"></stop><stop offset="80%" stop-color="#fff0da" stop-opacity="1"></stop></linearGradient></defs><defs><linearGradient id="grad2_1" x1="0%" y1="100%" x2="66.7%" y2="0%"><stop offset="20%" stop-color="#fff7ec" stop-opacity="1"></stop><stop offset="80%" stop-color="#fff0da" stop-opacity="1"></stop></linearGradient></defs><defs><linearGradient id="grad2_2" x1="0%" y1="100%" x2="66.7%" y2="0%"><stop offset="20%" stop-color="#fff7ec" stop-opacity="1"></stop><stop offset="80%" stop-color="#ffffff" stop-opacity="1"></stop></linearGradient></defs><g transform="translate(900, 600)"><path d="M-351.5 0C-329.1 -38.8 -306.7 -77.7 -292.9 -121.3C-279.1 -165 -273.9 -213.4 -248.6 -248.6C-223.2 -283.7 -177.6 -305.6 -132.8 -320.6C-88 -335.5 -44 -343.5 0 -351.5L0 0Z" fill="#fffbf6"></path><path d="M-234.4 0C-219.4 -25.9 -204.4 -51.8 -195.2 -80.9C-186.1 -110 -182.6 -142.3 -165.7 -165.7C-148.8 -189.2 -118.4 -203.8 -88.5 -213.7C-58.7 -223.7 -29.3 -229 0 -234.4L0 0Z" fill="#fff4e3"></path><path d="M-117.2 0C-109.7 -12.9 -102.2 -25.9 -97.6 -40.4C-93 -55 -91.3 -71.1 -82.9 -82.9C-74.4 -94.6 -59.2 -101.9 -44.3 -106.9C-29.3 -111.8 -14.7 -114.5 0 -117.2L0 0Z" fill="#fff0da"></path></g><g transform="translate(0, 0)"><path d="M351.5 0C326.6 37.7 301.6 75.4 288.3 119.4C274.9 163.4 273.1 213.6 248.6 248.6C224.1 283.5 176.9 303.2 131.6 317.8C86.4 332.4 43.2 342 0 351.5L0 0Z" fill="#fffbf6"></path><path d="M234.4 0C217.7 25.1 201.1 50.3 192.2 79.6C183.2 108.9 182.1 142.4 165.7 165.7C149.4 189 117.9 202.1 87.8 211.9C57.6 221.6 28.8 228 0 234.4L0 0Z" fill="#fff4e3"></path><path d="M117.2 0C108.9 12.6 100.5 25.1 96.1 39.8C91.6 54.5 91 71.2 82.9 82.9C74.7 94.5 59 101.1 43.9 105.9C28.8 110.8 14.4 114 0 117.2L0 0Z" fill="#fff0da"></path></g></svg>