<svg id="visual" viewBox="0 0 900 600" width="900" height="600" xmlns="http://www.w3.org/2000/svg" xmlns:xlink="http://www.w3.org/1999/xlink" version="1.1"><rect x="0" y="0" width="900" height="600" fill="#ffffff"></rect><defs><linearGradient id="grad1_0" x1="33.3%" y1="100%" x2="100%" y2="0%"><stop offset="20%" stop-color="#eff3ff" stop-opacity="1"></stop><stop offset="80%" stop-color="#eff3ff" stop-opacity="1"></stop></linearGradient></defs><defs><linearGradient id="grad1_1" x1="33.3%" y1="100%" x2="100%" y2="0%"><stop offset="20%" stop-color="#eff3ff" stop-opacity="1"></stop><stop offset="80%" stop-color="#ffffff" stop-opacity="1"></stop></linearGradient></defs><defs><linearGradient id="grad2_0" x1="0%" y1="100%" x2="66.7%" y2="0%"><stop offset="20%" stop-color="#eff3ff" stop-opacity="1"></stop><stop offset="80%" stop-color="#eff3ff" stop-opacity="1"></stop></linearGradient></defs><defs><linearGradient id="grad2_1" x1="0%" y1="100%" x2="66.7%" y2="0%"><stop offset="20%" stop-color="#ffffff" stop-opacity="1"></stop><stop offset="80%" stop-color="#eff3ff" stop-opacity="1"></stop></linearGradient></defs><g transform="translate(900, 600)"><path d="M-351.5 0C-351 -50.6 -350.4 -101.2 -324.8 -134.5C-299.2 -167.8 -248.6 -183.8 -215 -215C-181.3 -246.1 -164.6 -292.5 -131.6 -317.8C-98.6 -343.1 -49.3 -347.3 0 -351.5L0 0Z" fill="#f7f9ff"></path><path d="M-175.8 0C-175.5 -25.3 -175.2 -50.6 -162.4 -67.3C-149.6 -83.9 -124.3 -91.9 -107.5 -107.5C-90.7 -123.1 -82.3 -146.3 -65.8 -158.9C-49.3 -171.6 -24.7 -173.7 0 -175.8L0 0Z" fill="#eff3ff"></path></g><g transform="translate(0, 0)"><path d="M351.5 0C331.3 42.3 311 84.5 289.2 119.8C267.3 155 243.9 183.3 219.9 219.9C195.9 256.5 171.3 301.5 134.5 324.8C97.8 348.1 48.9 349.8 0 351.5L0 0Z" fill="#f7f9ff"></path><path d="M175.8 0C165.6 21.1 155.5 42.3 144.6 59.9C133.7 77.5 122 91.7 110 110C97.9 128.3 85.6 150.7 67.3 162.4C48.9 174.1 24.4 174.9 0 175.8L0 0Z" fill="#eff3ff"></path></g></svg>