<svg id="visual" viewBox="0 0 900 600" width="900" height="600" xmlns="http://www.w3.org/2000/svg" xmlns:xlink="http://www.w3.org/1999/xlink" version="1.1"><path d="M0 502L75 503C150 504 300 506 450 505.3C600 504.7 750 501.3 825 499.7L900 498L900 601L825 601C750 601 600 601 450 601C300 601 150 601 75 601L0 601Z" fill="#fbf1e5"></path><path d="M0 529L75 527.5C150 526 300 523 450 523.2C600 523.3 750 526.7 825 528.3L900 530L900 601L825 601C750 601 600 601 450 601C300 601 150 601 75 601L0 601Z" fill="#f9ecdc"></path><path d="M0 545L75 544.3C150 543.7 300 542.3 450 542.7C600 543 750 545 825 546L900 547L900 601L825 601C750 601 600 601 450 601C300 601 150 601 75 601L0 601Z" fill="#f7e5cf"></path><path d="M0 565L75 564.5C150 564 300 563 450 563.2C600 563.3 750 564.7 825 565.3L900 566L900 601L825 601C750 601 600 601 450 601C300 601 150 601 75 601L0 601Z" fill="#f4dcbd"></path></svg>