<svg id="Layer_1" enable-background="new 0 0 512 512" height="512" viewBox="0 0 512 512" width="512" xmlns="http://www.w3.org/2000/svg"><g><g><g><g><circle cx="255.943" cy="258.587" fill="#fff6e0" r="162.548"/><g><g><g><g><path d="m323.037 167.5-27.486 24.419c-12.635-6.636-28.519-5.114-39.729 5.032l-44.587 40.356 82.231 92.77 44.587-40.356c11.21-10.145 14.45-25.932 9.308-39.351l26.341-23.051z" fill="#cc8b66"/></g><path d="m138.184 224.904 28.336 26.241c-4.82 13.529-1.204 29.242 10.243 39.143 12.363 11.663 52.106 49.899 74.163 71.14 8.496 8.181 21.886 8.349 30.585.384l47.711-43.683c9.767-8.942 9.657-24.369-.237-33.172l-61.147-62.797-11.089-26.415c-11.448-9.901-27.36-11.079-39.833-4.169l-26.485-24.079z" fill="#ffcab9"/><path d="m295.551 191.919c-12.635-6.636-28.519-5.114-39.729 5.032l-22.326 19.445c-7.105 6.31-11.33 15.298-11.684 24.864l-.952 21.135c0 18.449 28.081 20.45 29.122 1.123l1.685-22.915 18.171-16.441 10.788 11.079" fill="#cc8b66"/></g></g><path d="m224.447 363.782-50.006-50.259c-5.292-5.328-5.077-13.991.472-19.051 10.285-9.377 26.124-9.011 35.965.829l31.416 31.416c9.824 9.824 10.546 25.517 1.663 36.2-4.977 5.987-14.025 6.387-19.51.865z" fill="#cc8b66"/></g></g></g><g><path d="m27.255 160.184c-12.405-14.638-19.897-33.562-19.897-54.248 0-46.414 37.652-84.041 84.098-84.041s84.098 37.626 84.098 84.041c0 46.414-37.652 84.041-84.098 84.041-15.546 0-28.673-4.563-38.249-9.425l-25.951 5.769z" fill="#ffea00"/><g><path d="m91.455 21.897c-6.896 0-13.593.848-20.007 2.413 36.784 8.973 64.09 42.105 64.09 81.628 0 39.428-27.175 72.5-63.826 81.567 6.002 1.508 12.613 2.474 19.743 2.474 46.446 0 84.097-37.626 84.097-84.041s-37.652-84.041-84.097-84.041z" fill="#ffd900"/></g></g><g><path d="m484.631 460.372c12.405-14.638 19.898-33.563 19.898-54.247 0-46.414-37.652-84.041-84.098-84.041s-84.098 37.626-84.098 84.041c0 46.414 37.652 84.041 84.098 84.041 15.546 0 28.673-4.563 38.249-9.425l25.951 5.769z" fill="#8affb3"/><path d="m420.431 322.085c-6.896 0-13.593.848-20.007 2.413 36.784 8.973 64.091 42.105 64.091 81.628 0 37.512-27.962 72.425-64.355 81.567 6.494 1.607 13.281 2.474 20.271 2.474 15.546 0 28.673-4.563 38.249-9.425l25.951 5.769v-26.137c12.405-14.638 19.898-33.563 19.898-54.247-.001-46.415-37.652-84.042-84.098-84.042z" fill="#6ef59d"/></g></g><g><path d="m320.664 453.186c-1.805.603-3.658 1.191-5.512 1.752-9.164 2.772-4.558 17.043 4.341 14.364 1.99-.602 3.981-1.234 5.922-1.883 9.203-3.071 4.452-17.302-4.751-14.233z"/><path d="m62.509 326.707c-3.231-9.147-17.381-4.145-14.148 5 1.437 4.065 3.012 8.135 4.681 12.093 3.687 8.745 17.59 3.094 13.827-5.829-1.554-3.687-3.021-7.476-4.36-11.264z"/><path d="m91.949 381.565c-5.83-7.754-17.822 1.265-11.992 9.019 2.592 3.445 5.317 6.858 8.103 10.142 6.39 7.539 17.64-2.397 11.444-9.704-2.598-3.062-5.14-6.244-7.555-9.457z"/><path d="m146.516 431.945c-3.398-2.152-6.774-4.434-10.036-6.779-7.873-5.669-16.637 6.515-8.763 12.18 3.5 2.519 7.123 4.966 10.77 7.276 7.936 5.031 16.203-7.497 8.029-12.677z"/><path d="m203.605 456.883c-3.888-1.027-7.791-2.184-11.599-3.437-9.215-3.028-13.906 11.22-4.691 14.253 4.09 1.346 8.282 2.588 12.458 3.69 9.052 2.398 13.106-12.057 3.832-14.506z"/><path d="m265.559 463.426c-4.003.186-8.081.254-12.105.208-9.433-.286-9.62 14.885-.188 15.003 4.326.057 8.666-.021 12.987-.222 9.697-.45 8.992-15.377-.694-14.989z"/><path d="m51.753 277.581c-.369-3.995-.624-8.06-.757-12.078-.323-9.705-15.319-9.192-14.997.498.144 4.311.417 8.671.812 12.959.872 9.441 15.843 8.413 14.942-1.379z"/><path d="m48.168 221.136c3.456 0 6.565-2.403 7.326-5.918.405-1.875.844-3.772 1.304-5.643 2.317-9.419-12.257-13.001-14.571-3.581-.492 2.005-.963 4.04-1.397 6.051-.928 4.282 3.027 9.091 7.338 9.091z"/><path d="m190.426 63.854c.768 0 1.549-.118 2.318-.368 1.844-.599 3.702-1.173 5.527-1.708 9.308-2.731 5.088-17.121-4.222-14.4-1.962.575-3.959 1.192-5.938 1.835-8.085 2.626-5.824 14.641 2.315 14.641z"/><path d="m307.937 60.2c3.815 1 7.654 2.128 11.407 3.351 8.882 2.901 13.804-11.284 4.648-14.267-4.029-1.312-8.151-2.524-12.247-3.599-9.387-2.455-13.19 12.052-3.808 14.515z"/><path d="m246.73 53.721c.108 0 .218-.002.327-.007 3.954-.169 7.959-.222 11.902-.169 9.438.255 9.64-14.87.211-15.003-4.229-.062-8.52-.001-12.756.181-9.515.408-9.156 14.998.316 14.998z"/><path d="m364.147 84.457c3.357 2.095 6.692 4.312 9.912 6.589 7.665 5.423 16.745-6.536 8.665-12.25-3.454-2.443-7.032-4.822-10.636-7.069-8.229-5.132-16.172 7.596-7.941 12.73z"/><path d="m459.65 234.917c.451 3.913.795 7.899 1.02 11.847.541 9.443 15.541 8.985 14.982-.854-.242-4.236-.61-8.514-1.096-12.714-1.111-9.636-16.02-7.915-14.906 1.721z"/><path d="m448.069 186.872c3.338 8.906 17.453 3.813 14.052-5.266-1.484-3.959-3.104-7.929-4.815-11.795-3.923-8.872-17.646-2.8-13.722 6.07 1.594 3.605 3.103 7.302 4.485 10.991z"/><path d="m418.274 133.426c6.106 7.906 17.689-1.646 11.875-9.173-2.58-3.34-5.302-6.659-8.089-9.865-6.363-7.322-17.689 2.523-11.324 9.843 2.597 2.989 5.133 6.083 7.538 9.195z"/><path d="m457.535 296.276c-.354 1.896-.737 3.803-1.141 5.671-1.995 9.219 12.586 12.786 14.665 3.173.435-2.008.847-4.058 1.227-6.095 1.777-9.535-12.972-12.285-14.751-2.749z"/><path d="m334.289 323.664c7.717-7.064 11.26-18.323 8.967-28.535 11.657-10.666 16.449-27.106 12.714-42.324l22.674-19.843c3.118-2.729 3.434-7.469.704-10.587-2.729-3.117-7.468-3.434-10.587-.704l-26.341 23.052c-2.365 2.07-3.189 5.395-2.065 8.33 3.664 9.561 1.82 20.389-4.505 28.125-19.85-21.072-40.437-41.507-60.637-62.25-2.815-2.892-7.416-3.037-10.409-.329l-18.171 16.441c-1.43 1.294-2.307 3.089-2.448 5.014l-1.686 22.915c-.724 9.058-14.011 8.675-14.137-.427l.946-21.005c.276-7.485 3.618-14.604 9.113-19.485l22.326-19.445c.036-.031.071-.062.106-.095 8.508-7.7 21.048-9.287 31.206-3.951 2.871 1.512 6.314.961 8.577-1.127l27.38-24.325c3.098-2.752 3.378-7.494.625-10.592-2.751-3.097-7.494-3.38-10.592-.625l-23.876 21.212c-12.066-4.53-26.084-3.207-37.057 3.553-11.506-7.514-26.079-9.011-38.854-3.99l-22.789-20.718c-3.064-2.788-7.812-2.563-10.598.504-2.788 3.065-2.563 7.811.504 10.598l26.485 24.079c2.378 2.163 5.869 2.57 8.683 1.012 7.452-4.127 16.312-4.459 23.938-1.27l-15.974 13.914c-8.597 7.634-13.773 18.64-14.197 30.136l-.952 21.136c-1.21 27.851 42.481 30.277 44.104 1.945l1.461-19.852 10.552-9.546 54.129 55.588c6.023 6.164 7.478 16.056.546 22.405l-47.711 43.683c-5.762 5.274-14.685 5.165-20.311-.253 3.764-11.886.836-25.245-8.535-34.616l-31.415-31.416c-9.862-9.861-24.331-12.348-36.522-7.305-7.206-7.635-9.662-18.958-6.075-29.029 1.007-2.827.232-5.982-1.971-8.023l-28.335-26.24c-7.52-6.496-17.248 4.012-10.194 11.01l24.946 23.103c-3.046 13.413.501 27.657 9.408 38.023-6.264 8.029-5.45 20.1 1.682 27.279l50.006 50.258c7.917 7.966 21.232 8.094 29.293.068 11.227 8.493 27.743 7.74 38.155-1.794zm-100.229 36.506c-1.777-.032-3.209-.592-4.295-1.681l-50.001-50.253c-2.271-2.798-2.203-5.538.203-8.22 7.237-6.597 18.662-6.353 25.606.59l31.416 31.417c5.985 5.985 7.307 14.855 3.761 22.135-1.485 2.582-3.096 5.855-6.69 6.012z"/><path d="m60.316 114.692c9.655 0 9.671-15.005 0-15.005-9.656 0-9.672 15.005 0 15.005z"/><path d="m91.455 99.687c-9.655 0-9.671 15.005 0 15.005 9.656 0 9.672-15.005 0-15.005z"/><path d="m122.595 99.687c-9.655 0-9.671 15.005 0 15.005 9.655 0 9.671-15.005 0-15.005z"/><path d="m504.081 368.832c-3.957-8.856-17.657-2.733-13.698 6.123 12.018 26.231 7.359 58.712-11.476 80.568-1.148 1.354-1.779 3.074-1.779 4.851v16.783l-16.819-3.738c-1.7-.377-3.474-.155-5.024.634-50.014 26.691-112.062-11.636-111.448-67.926.048-63.095 75.077-99.927 124.363-59.806 7.583 6.051 16.944-5.671 9.364-11.725-17.362-13.907-38.808-20.874-61.034-19.93 49.294-141.977-97.656-273.934-233.482-209.749.133-61.215-63.26-106.142-121.044-85.659-3.924 1.331-6.026 5.592-4.695 9.515 1.33 3.924 5.596 6.025 9.515 4.695 48.633-17.225 101.891 20.87 101.224 72.471.616 56.281-61.441 94.625-111.447 67.925-1.551-.786-3.326-1.01-5.025-.634l-16.819 3.738v-16.783c0-1.776-.63-3.495-1.779-4.851-25.236-28.834-23.756-75.538 3.448-102.601 2.882-2.977 2.806-7.727-.171-10.61-2.978-2.883-7.728-2.806-10.609.17-31.799 31.667-34.328 85.974-5.892 120.575v23.452c.701 5.362 3.744 7.804 9.131 7.324l23.38-5.197c13.981 6.634 29.54 9.822 45.005 8.85-54.81 142.927 93.432 280.328 231.761 214.869 3.331 63.082 73.201 104.999 130.594 76.47l23.38 5.197c5.387.479 8.43-1.962 9.131-7.324v-23.452c21.076-26.047 25.914-63.728 11.945-94.225zm-403.183-110.245c0-22.37 4.653-43.927 13.828-64.1 34.038-8.94 60.397-37.012 66.823-71.967 127.721-69.144 272.151 59.709 218.076 194.444-37.034 8.629-65.51 39.774-70.134 78.149-101.529 55.881-229.602-20.499-228.593-136.526z"/><path d="m451.571 414.882c9.655 0 9.671-15.005 0-15.005-9.655-.001-9.671 15.005 0 15.005z"/><path d="m420.431 414.882c9.655 0 9.671-15.005 0-15.005-9.655-.001-9.671 15.005 0 15.005z"/><path d="m389.292 414.882c9.655 0 9.671-15.005 0-15.005-9.655-.001-9.672 15.005 0 15.005z"/></g></g></svg>