<svg height="512" viewBox="0 0 64 64" width="512" xmlns="http://www.w3.org/2000/svg"><g id="earth-Solar_Panel" data-name="earth-Solar Panel"><path d="m17 48h5v4h-5z" fill="#d80027"/><path d="m18 49h5v1h-5z" fill="#e03352"/><path d="m42 48h5v4h-5z" fill="#ff9811"/><path d="m38 48-2 1h-4l-2 5 1 2-.81 4.85a11.052 11.052 0 0 1 -3.87-1.42v-.01l.68-3.42v-3l1-2v-4l-3-1-1.67-2.77v-.01a11.018 11.018 0 0 1 5-3.59l.67 3.37h3l2 1 3 1h4.8a10.961 10.961 0 0 1 1.02 3z" fill="#006df0"/><path d="m28 47v4l-1 2v3l-.68 3.42a10.992 10.992 0 0 1 -2.99-16.19l1.67 2.77z" fill="#64c37d"/><path d="m40 48h2.82a11 11 0 0 1 -10.82 13 10.784 10.784 0 0 1 -1.81-.15l.81-4.85-1-2 2-5h4l2-1z" fill="#64c37d"/><path d="m41.8 45h-4.8l-3-1-2-1h-3l-.67-3.37a10.84 10.84 0 0 1 3.67-.63 11 11 0 0 1 9.8 6z" fill="#64c37d"/><path d="m17 51h-5a1 1 0 0 1 -1-1v-17a1 1 0 0 1 1-1h18v2h-17v15h4z" fill="#1a6fb0"/><path d="m52 51h-5v-2h4v-15h-17v-2h18a1 1 0 0 1 1 1v17a1 1 0 0 1 -1 1z" fill="#1a6fb0"/><path d="m8 3h48v27h-48z" fill="#005ece"/><path d="m56 3a27 27 0 0 1 -27 27h-21v-27z" fill="#006df0"/><path d="m29 30h6v6h-6z" fill="#3e3d42"/><path d="m41 6h12v5h-12z" fill="#46f8ff"/><path d="m11 14h12v5h-12z" fill="#00eed1"/><path d="m26 14h12v5h-12z" fill="#46f8ff"/><path d="m11 6h12v5h-12z" fill="#46f8ff"/><path d="m23 6-12 5v-5z" fill="#9bfbff"/><path d="m41 22h12v5h-12z" fill="#46f8ff"/><path d="m11 22h12v5h-12z" fill="#46f8ff"/><path d="m26 22h12v5h-12z" fill="#00eed1"/><path d="m41 14h12v5h-12z" fill="#00eed1"/><path d="m26 6h12v5h-12z" fill="#00eed1"/><path d="m29 30h6v1h-6z" fill="#2d2d30"/><g fill="#9bfbff"><path d="m38 6-12 5v-5z"/><path d="m53 6-12 5v-5z"/><path d="m53 14-12 5v-5z"/><path d="m38 14-12 5v-5z"/><path d="m23 14-12 5v-5z"/><path d="m23 22-12 5v-5z"/><path d="m38 22-12 5v-5z"/><path d="m53 22-12 5v-5z"/></g><path d="m26 35h12v2h-12z" fill="#2d2d30"/></g></svg>