<svg height="512" viewBox="0 0 64 64" width="512" xmlns="http://www.w3.org/2000/svg"><g id="Battery-Solar_Panel-2" data-name="Battery-Solar Panel"><path d="m8 3h48v27h-48z" fill="#005ece"/><path d="m56 3a27 27 0 0 1 -27 27h-21v-27z" fill="#006df0"/><path d="m18 47h28v14h-28z" fill="#00e7f0"/><path d="m16 43h32v4h-32z" fill="#004fac"/><path d="m44 39v4h-4v-4h2z" fill="#ff9811"/><path d="m24 39v4h-4v-4h2z" fill="#d80027"/><path d="m29 30h6v6h-6z" fill="#3e3d42"/><path d="m41 6h12v5h-12z" fill="#46f8ff"/><path d="m11 14h12v5h-12z" fill="#00eed1"/><path d="m26 14h12v5h-12z" fill="#46f8ff"/><path d="m11 6h12v5h-12z" fill="#46f8ff"/><path d="m23 6-12 5v-5z" fill="#9bfbff"/><path d="m41 22h12v5h-12z" fill="#46f8ff"/><path d="m11 22h12v5h-12z" fill="#46f8ff"/><path d="m26 22h12v5h-12z" fill="#00eed1"/><path d="m41 14h12v5h-12z" fill="#00eed1"/><path d="m26 6h12v5h-12z" fill="#00eed1"/><path d="m22 53h2v-1h1v-2h-1v-1h-2v1h-1v2h1z" fill="#fff"/><path d="m39 50h4v2h-4z" fill="#fff"/><path d="m29 30h6v1h-6z" fill="#2d2d30"/><g fill="#9bfbff"><path d="m38 6-12 5v-5z"/><path d="m53 6-12 5v-5z"/><path d="m53 14-12 5v-5z"/><path d="m38 14-12 5v-5z"/><path d="m23 14-12 5v-5z"/><path d="m23 22-12 5v-5z"/><path d="m38 22-12 5v-5z"/><path d="m53 22-12 5v-5z"/></g><path d="m21 40h1v3h-1z" fill="#e03352"/><path d="m41 40h1v3h-1z" fill="#ffefad"/><rect fill="#005ece" height="2" rx="1" width="11" x="17" y="44"/><path d="m18 47h28v1h-28z" fill="#003f8a"/><path d="m26 35h12v2h-12z" fill="#2d2d30"/><path d="m23 39h-2v-6a1 1 0 0 1 1-1h7v2h-6z" fill="#1a6fb0"/><path d="m43 39h-2v-5h-6v-2h7a1 1 0 0 1 1 1z" fill="#1a6fb0"/></g></svg>