<svg height="512" viewBox="0 0 64 64" width="512" xmlns="http://www.w3.org/2000/svg"><g id="Battery-Solar_Power" data-name="Battery-Solar Power"><path d="m3 18h58v38h-58z" fill="#00e7f0"/><path d="m3 18h14v8h-14z" fill="#004fac"/><path d="m3 18h14a0 0 0 0 1 0 0 8 8 0 0 1 -8 8h-6a0 0 0 0 1 0 0v-8a0 0 0 0 1 0 0z" fill="#005ece"/><path d="m47 18h14v8h-14z" fill="#004fac"/><path d="m3 50h58v6h-58z" fill="#004fac"/><path d="m7 21h6v5h-6z" fill="#d80027"/><circle cx="32" cy="35" fill="#ffda44" r="6"/><path d="m21 11v7h-4v-8a2.006 2.006 0 0 1 2-2h26a2.006 2.006 0 0 1 2 2v8h-4v-7z" fill="#e0e0e2"/><path d="m9 33v2h2v-2h2v-2h-2v-2h-2v2h-2v2z" fill="#fff"/><path d="m51 31h6v2h-6z" fill="#fff"/><g fill="#ff9811"><path d="m31 24h2v2h-2z"/><path d="m38.071 26.929h2v2h-2z" transform="matrix(.707 -.707 .707 .707 -8.305 35.808)"/><path d="m41 34h2v2h-2z"/><path d="m38.071 41.071h2v2h-2z" transform="matrix(.707 -.707 .707 .707 -18.305 39.95)"/><path d="m31 44h2v2h-2z"/><path d="m23.929 41.071h2v2h-2z" transform="matrix(.707 -.707 .707 .707 -22.447 29.95)"/><path d="m21 34h2v2h-2z"/><path d="m23.929 26.929h2v2h-2z" transform="matrix(.707 -.707 .707 .707 -12.447 25.808)"/></g><path d="m32 35v-5l-3 5z" fill="#ff5023"/><path d="m32 35v5l3-5z" fill="#ff5023"/><path d="m3 50h58v1h-58z" fill="#006df0"/><path d="m9 22a1 1 0 0 1 1 1v3a0 0 0 0 1 0 0h-2a0 0 0 0 1 0 0v-3a1 1 0 0 1 1-1z" fill="#e03352"/><path d="m47 18h14a0 0 0 0 1 0 0 8 8 0 0 1 -8 8h-6a0 0 0 0 1 0 0v-8a0 0 0 0 1 0 0z" fill="#005ece"/><path d="m51 21h6v5h-6z" fill="#ff9811"/><path d="m53 22a1 1 0 0 1 1 1v3a0 0 0 0 1 0 0h-2a0 0 0 0 1 0 0v-3a1 1 0 0 1 1-1z" fill="#ffe169"/></g></svg>