<svg height="512" viewBox="0 0 64 64" width="512" xmlns="http://www.w3.org/2000/svg"><g id="Solar_electric" data-name="Solar electric"><path d="m3 26h58v15h-58z" fill="#00d7df"/><path d="m23 26h18v15h-18z" fill="#66f5e3"/><path d="m31 56h2v6h-2z" fill="#1a6fb0"/><path d="m12 56h2v6h-2z" fill="#1a6fb0"/><path d="m50 56h2v6h-2z" fill="#1a6fb0"/><path d="m18 48v4a5 5 0 0 1 -10 0v-4z" fill="#57565c"/><path d="m56 48v4a5 5 0 0 1 -10 0v-4z" fill="#57565c"/><path d="m37 48v4a5 5 0 0 1 -10 0v-4z" fill="#57565c"/><circle cx="32" cy="13" fill="#ffda44" r="6"/><path d="m31 2h2v2h-2z" fill="#ff9811"/><path d="m38.071 4.929h2v2h-2z" fill="#ff9811" transform="matrix(.707 -.707 .707 .707 7.251 29.364)"/><path d="m41 12h2v2h-2z" fill="#ff9811"/><path d="m38.071 19.071h2v2h-2z" fill="#ff9811" transform="matrix(.707 -.707 .707 .707 -2.751 33.499)"/><path d="m31 22h2v2h-2z" fill="#ff9811"/><path d="m23.929 19.071h2v2h-2z" fill="#ff9811" transform="matrix(.707 -.707 .707 .707 -6.891 23.506)"/><path d="m21 12h2v2h-2z" fill="#ff9811"/><path d="m23.929 4.929h2v2h-2z" fill="#ff9811" transform="matrix(.707 -.707 .707 .707 3.107 19.36)"/><path d="m13 29-3 5h3z" fill="#ff5023"/><path d="m16 34h-3v5z" fill="#ff5023"/><path d="m32 29-3 5h3z" fill="#ff5023"/><path d="m35 34h-3v5z" fill="#ff5023"/><path d="m51 29-3 5h3z" fill="#ff5023"/><path d="m54 34h-3v5z" fill="#ff5023"/><g fill="#e0e0e2"><path d="m30 48h-2v-4a1 1 0 0 1 1-1 1 1 0 0 1 1 1z"/><path d="m36 48h-2v-4a1 1 0 0 1 1-1 1 1 0 0 1 1 1z"/><path d="m11 48h-2v-4a1 1 0 0 1 1-1 1 1 0 0 1 1 1z"/><path d="m17 48h-2v-4a1 1 0 0 1 1-1 1 1 0 0 1 1 1z"/><path d="m55 48h-2v-4a1 1 0 0 1 1-1 1 1 0 0 1 1 1z"/><path d="m49 48h-2v-4a1 1 0 0 1 1-1 1 1 0 0 1 1 1z"/><rect height="4" rx="1" width="2" x="9" y="49"/><rect height="4" rx="1" width="2" x="28" y="49"/><rect height="4" rx="1" width="2" x="47" y="49"/></g></g></svg>