<svg height="512" viewBox="0 0 64 64" width="512" xmlns="http://www.w3.org/2000/svg"><g id="Electric_kettle" data-name="Electric kettle"><path d="m50 28h-2v-5a5.006 5.006 0 0 1 5-5h4a3 3 0 0 0 3-3v-1a3 3 0 0 0 -3-3h-2v-2h2a5.006 5.006 0 0 1 5 5v1a5.006 5.006 0 0 1 -5 5h-4a3 3 0 0 0 -3 3z" fill="#1a6fb0"/><path d="m62 43h-2v-10a3 3 0 0 0 -3-3h-7v-2h7a5.006 5.006 0 0 1 5 5z" fill="#c6c5ca"/><path d="m39 27v7l-2 2h-13l-2-2v-7l2-2h13z" fill="#00eed1"/><path d="m39 16v7l-2 2h-13l-2-2v-7l2-2h13z" fill="#46f8ff"/><path d="m39 49v7l-2 2h-13l-2-2v-7l2-2h13z" fill="#00eed1"/><path d="m39 38v7l-2 2h-13l-2-2v-7l2-2h13z" fill="#46f8ff"/><path d="m20.586 12.586h2.828v2.828h-2.828z" fill="#2488ff" transform="matrix(.707 -.707 .707 .707 -3.456 19.657)"/><path d="m20.586 23.586h2.828v2.828h-2.828z" fill="#2488ff" transform="matrix(.707 -.707 .707 .707 -11.234 22.879)"/><path d="m20.586 45.586h2.828v2.828h-2.828z" fill="#2488ff" transform="matrix(.707 -.707 .707 .707 -26.79 29.322)"/><path d="m20.586 34.586h2.828v2.828h-2.828z" fill="#2488ff" transform="matrix(.707 -.707 .707 .707 -19.012 26.101)"/><path d="m39 5v7l-2 2h-13l-2-2v-7l2-2h13z" fill="#00eed1"/><path d="m22 27v7l-2 2h-13l-2-2v-7l2-2h13z" fill="#46f8ff"/><path d="m22 5v7l-2 2h-13l-2-2v-7l2-2h13z" fill="#46f8ff"/><path d="m22 16v7l-2 2h-13l-2-2v-7l2-2h13z" fill="#00eed1"/><path d="m22 49v7l-2 2h-13l-2-2v-7l2-2h13z" fill="#46f8ff"/><path d="m22 38v7l-2 2h-13l-2-2v-7l2-2h13z" fill="#00eed1"/><g fill="#6bf9ff"><path d="m7 3-2 2v7l.457.457 13.438-9.457z"/><path d="m24 3-2 2v7l.457.457 13.438-9.457z"/><path d="m24 14-2 2v7l.457.457 13.438-9.457z"/><path d="m7 14-2 2v7l.457.457 13.438-9.457z"/><path d="m7 25-2 2v7l.457.457 13.438-9.457z"/><path d="m7 36-2 2v7l.457.457 13.438-9.457z"/><path d="m7 47-2 2v7l.457.457 13.438-9.457z"/><path d="m24 47-2 2v7l.457.457 13.438-9.457z"/><path d="m24 36-2 2v7l.457.457 13.438-9.457z"/><path d="m24 25-2 2v7l.457.457 13.438-9.457z"/></g><path d="m35 29-1 8-10-8z" fill="#ffe477"/><path d="m50.95 29h-16.9c2.38-4.29 5.3-7 8.45-7s6.07 2.71 8.45 7z" fill="#b39a7c"/><path d="m50.95 29a32.3 32.3 0 0 1 1.88 4h-20.66a32.3 32.3 0 0 1 1.88-4z" fill="#e0e0e2"/><path d="m57 56h-29a64.154 64.154 0 0 1 4.17-23h20.66a64.154 64.154 0 0 1 4.17 23z" fill="#b39a7c"/><path d="m57 56 1 5h-31l1-5z" fill="#e0e0e2"/><path d="m44 39v2h-4v-2a2 2 0 0 1 4 0z" fill="#d80027"/><path d="m45 49a3 3 0 1 1 -5-2.22v-5.78h4v5.78a2.97 2.97 0 0 1 1 2.22z" fill="#ffda44"/><path d="m56 10a5 5 0 0 1 -5 5h-4v-10h4a5 5 0 0 1 5 5z" fill="#c6c5ca"/><path d="m47 14h-4a1 1 0 0 1 -1-1 1 1 0 0 1 1-1h4z" fill="#e0e0e2"/><path d="m47 8h-4a1 1 0 0 1 -1-1 1 1 0 0 1 1-1h4z" fill="#e0e0e2"/><rect fill="#fff" height="2" rx="1" width="5" x="48" y="6"/><path d="m32.5 44a1.5 1.5 0 0 1 1.5 1.5v10.5a0 0 0 0 1 0 0h-3a0 0 0 0 1 0 0v-10.5a1.5 1.5 0 0 1 1.5-1.5z" fill="#c0ab91"/></g></svg>