<svg height="512" viewBox="0 0 64 64" width="512" xmlns="http://www.w3.org/2000/svg"><g id="Solar_Panel-charnging" data-name="Solar Panel-charnging"><path d="m39 27v7l-2 2h-13l-2-2v-7l2-2h13z" fill="#00eed1"/><path d="m39 16v7l-2 2h-13l-2-2v-7l2-2h13z" fill="#46f8ff"/><path d="m39 49v7l-2 2h-13l-2-2v-7l2-2h13z" fill="#00eed1"/><path d="m39 38v7l-2 2h-13l-2-2v-7l2-2h13z" fill="#46f8ff"/><rect fill="#006df0" height="42" rx="4" width="24" x="36" y="19"/><path d="m40 19h16a4 4 0 0 1 4 4v18a20 20 0 0 1 -20 20 4 4 0 0 1 -4-4v-34a4 4 0 0 1 4-4z" fill="#2488ff"/><path d="m20.586 12.586h2.828v2.828h-2.828z" fill="#2488ff" transform="matrix(.707 -.707 .707 .707 -3.456 19.657)"/><path d="m20.586 23.586h2.828v2.828h-2.828z" fill="#2488ff" transform="matrix(.707 -.707 .707 .707 -11.234 22.879)"/><path d="m20.586 45.586h2.828v2.828h-2.828z" fill="#2488ff" transform="matrix(.707 -.707 .707 .707 -26.79 29.322)"/><path d="m20.586 34.586h2.828v2.828h-2.828z" fill="#2488ff" transform="matrix(.707 -.707 .707 .707 -19.012 26.101)"/><path d="m39 5v7l-2 2h-13l-2-2v-7l2-2h13z" fill="#00eed1"/><path d="m22 27v7l-2 2h-13l-2-2v-7l2-2h13z" fill="#46f8ff"/><path d="m22 5v7l-2 2h-13l-2-2v-7l2-2h13z" fill="#46f8ff"/><path d="m22 16v7l-2 2h-13l-2-2v-7l2-2h13z" fill="#00eed1"/><path d="m22 49v7l-2 2h-13l-2-2v-7l2-2h13z" fill="#46f8ff"/><path d="m22 38v7l-2 2h-13l-2-2v-7l2-2h13z" fill="#00eed1"/><path d="m40 51h16v5h-16z" fill="#d80027"/><path d="m40 42h16v5h-16z" fill="#ff9811"/><path d="m40 33h16v5h-16z" fill="#ffda44"/><path d="m53 16v3h-10v-3a2.006 2.006 0 0 1 2-2h6a2.006 2.006 0 0 1 2 2z" fill="#78b9eb"/><path d="m45 16h2v3h-2z" fill="#57a4ff"/><g fill="#6bf9ff"><path d="m7 3-2 2v7l.457.457 13.438-9.457z"/><path d="m24 3-2 2v7l.457.457 13.438-9.457z"/><path d="m24 14-2 2v7l.457.457 13.438-9.457z"/><path d="m7 14-2 2v7l.457.457 13.438-9.457z"/><path d="m7 25-2 2v7l.457.457 13.438-9.457z"/><path d="m7 36-2 2v7l.457.457 13.438-9.457z"/><path d="m7 47-2 2v7l.457.457 13.438-9.457z"/><path d="m24 47-2 2v7l.457.457 13.438-9.457z"/><path d="m24 36-2 2v7l.457.457 13.438-9.457z"/><path d="m24 25-2 2v7l.457.457 13.438-9.457z"/></g></g></svg>