<svg height="512" viewBox="0 0 64 64" width="512" xmlns="http://www.w3.org/2000/svg"><g id="house-solar_power" data-name="house-solar power"><path d="m57 57h-8v-2h8a3 3 0 0 0 3-3v-35a3 3 0 0 0 -3-3h-17v-2h17a5.006 5.006 0 0 1 5 5v35a5.006 5.006 0 0 1 -5 5z" fill="#1a6fb0"/><path d="m5 43h30v18h-30z" fill="#d9ccbc"/><path d="m35 43h14v18h-14z" fill="#c0ab91"/><path d="m17 50v4h-6v-4a3 3 0 0 1 6 0z" fill="#78b9eb"/><path d="m29 50v4h-6v-4a3 3 0 0 1 6 0z" fill="#78b9eb"/><path d="m24 51a3 3 0 0 1 3-3 2.966 2.966 0 0 1 1.553.447 2.991 2.991 0 0 0 -5.553 1.553v4h1z" fill="#006df0"/><path d="m12 51a3 3 0 0 1 3-3 2.966 2.966 0 0 1 1.553.447 2.991 2.991 0 0 0 -5.553 1.553v4h1z" fill="#006df0"/><path d="m50 43h-12l6-14z" fill="#005ece"/><path d="m44 29-6 14h-35l6-14z" fill="#2488ff"/><path d="m45 52v9h-6v-9a3 3 0 0 1 6 0z" fill="#e0e0e2"/><path d="m40 53a3 3 0 0 1 3-3 2.966 2.966 0 0 1 1.553.447 2.991 2.991 0 0 0 -5.553 1.553v9h1z" fill="#acabb1"/><path d="m42 13a5 5 0 0 1 -5 5h-4v-10h4a5 5 0 0 1 5 5z" fill="#c6c5ca"/><circle cx="15" cy="13" fill="#ffda44" r="6"/><g fill="#ff9811"><path d="m14 2h2v2h-2z"/><path d="m21.071 4.929h2v2h-2z" transform="matrix(.707 -.707 .707 .707 2.272 17.343)"/><path d="m24 12h2v2h-2z"/><path d="m21.071 19.071h2v2h-2z" transform="matrix(.707 -.707 .707 .707 -7.728 21.486)"/><path d="m14 22h2v2h-2z"/><path d="m6.929 19.071h2v2h-2z" transform="matrix(.707 -.707 .707 .707 -11.87 11.485)"/><path d="m4 12h2v2h-2z"/><path d="m6.929 4.929h2v2h-2z" transform="matrix(.707 -.707 .707 .707 -1.87 7.343)"/></g><path d="m33 17h-4a1 1 0 0 1 -1-1 1 1 0 0 1 1-1h4z" fill="#e0e0e2"/><path d="m33 11h-4a1 1 0 0 1 -1-1 1 1 0 0 1 1-1h4z" fill="#e0e0e2"/><rect fill="#fff" height="2" rx="1" width="5" x="34" y="9"/><path d="m35 43h14v1h-14z" fill="#b39a7c"/><path d="m5 43h30v1h-30z" fill="#c0ab91"/></g></svg>