<svg height="512" viewBox="0 0 64 64" width="512" xmlns="http://www.w3.org/2000/svg"><g id="Solar_power_lamp" data-name="Solar power lamp"><path d="m44 27h-24l1-24h22z" fill="#3e3d42"/><path d="m20 27 1-24h22v.021a23.021 23.021 0 0 1 -23 23.979z" fill="#57565c"/><path d="m40 6 1 18h-18l1-18z" fill="#00e7f0"/><path d="m40 6h-16l-.945 17.015 17.134-13.607z" fill="#46f8ff"/><path d="m38 34v13a6 6 0 0 1 -12 0v-13z" fill="#ffeb99"/><path d="m29 27h6v4h-6z" fill="#3e3d42"/><path d="m19 31h26v3h-26z" fill="#e0e0e2"/><path d="m34 34v11a2 2 0 0 1 -4 0v-11z" fill="#ffda44"/><path d="m26 9h12v2h-12z" fill="#fff"/><path d="m26 14h12v2h-12z" fill="#9bfbff"/><path d="m26 19h12v2h-12z" fill="#fff"/><g fill="#ff5023"><path d="m31 58h2v4h-2z"/><path d="m17.979 54.021h4v2h-4z" transform="matrix(.707 -.707 .707 .707 -33.054 30.243)"/><path d="m13 42h4v2h-4z"/><path d="m47 42h4v2h-4z"/><path d="m43.021 53.021h2v4h-2z" transform="matrix(.707 -.707 .707 .707 -26.012 47.243)"/></g><path d="m29 27h6v1h-6z" fill="#2d2d30"/></g></svg>