<svg height="512" viewBox="0 0 64 64" width="512" xmlns="http://www.w3.org/2000/svg"><g id="Solar_cell" data-name="Solar cell"><path d="m3 16a16 16 0 0 1 0 32z" fill="#ffda44"/><circle cx="56" cy="50" fill="#ff9811" r="4"/><circle cx="49" cy="32" fill="#2488ff" r="12"/><circle cx="56" cy="14" fill="#d80027" r="4"/><path d="m55 16h2v-1h1v-2h-1v-1h-2v1h-1v2h1z" fill="#fff"/><path d="m54 49h4v2h-4z" fill="#fff"/><path d="m15.849 16.151h4.001v2h-4.001z" fill="#ff9811" transform="matrix(.707 -.707 .707 .707 -6.9 17.645)"/><path d="m2 9h2v4h-2z" fill="#ff9811"/><path d="m2 51h2v4h-2z" fill="#ff9811"/><path d="m16.849 44.849h2v4.001h-2z" fill="#ff9811" transform="matrix(.707 -.707 .707 .707 -27.898 26.339)"/><path d="m22 31h4v2h-4z" fill="#ff9811"/><g fill="#ff5023"><path d="m36 12-3.536-3.536 1.415 5.657z"/><path d="m38.121 9.879-2.121 2.121 3.536 3.536z"/><path d="m29 21-3.536-3.536 1.415 5.657z"/><path d="m31.121 18.879-2.121 2.121 3.536 3.536z"/><path d="m32.464 55.536 3.536-3.536-2.121-2.121z"/><path d="m38.121 54.121 1.415-5.657-3.536 3.536z"/><path d="m25.464 46.536 3.536-3.536-2.121-2.121z"/><path d="m29 43 2.121 2.121 1.415-5.657z"/><path d="m45 35h3v27h2v-27h3v-2h-8z"/><path d="m50 29v-27h-2v27h-5v2h12v-2z"/></g></g></svg>