<svg height="512" viewBox="0 0 64 64" width="512" xmlns="http://www.w3.org/2000/svg"><g id="Solar_Charging_Station" data-name="Solar Charging Station"><path d="m38 53h-5v-2h4v-8h2v9a1 1 0 0 1 -1 1z" fill="#1a6fb0"/><path d="m41 36h18v21h-18z" fill="#00d7df"/><path d="m39 57h22v4h-22z" fill="#e0e0e2"/><path d="m37 39h4v5h-4z" fill="#00b6bd"/><circle cx="50" cy="46" fill="#ffda44" r="6"/><path d="m39 33h22v3h-22z" fill="#e0e0e2"/><rect fill="#ff5023" height="8" rx="2" width="30" x="3" y="48"/><path d="m12 56v3a2.006 2.006 0 0 1 -2 2h-2a2.006 2.006 0 0 1 -2-2v-3z" fill="#3e3d42"/><path d="m30 56v3a2.006 2.006 0 0 1 -2 2h-2a2.006 2.006 0 0 1 -2-2v-3z" fill="#3e3d42"/><path d="m14 22h4v4h-4z" fill="#3e3d42"/><path d="m46 22h4v4h-4z" fill="#3e3d42"/><path d="m3 26h58v3h-58z" fill="#57565c"/><circle cx="9" cy="52" fill="#ffda44" r="2"/><circle cx="27" cy="52" fill="#ffda44" r="2"/><path d="m50 46v-5l-3 5z" fill="#ff5023"/><path d="m50 46v5l3-5z" fill="#ff5023"/><path d="m14 22h4v1h-4z" fill="#2d2d30"/><path d="m46 22h4v1h-4z" fill="#2d2d30"/><path d="m41 36h18v1h-18z" fill="#c6c5ca"/><path d="m40 34h6v1h-6z" fill="#fff"/><g fill="#46f8ff"><path d="m60 3 .32 6h-8.32v-6z"/><path d="m44 3v6h-8.32l.32-6z"/><path d="m44 16v6h-9l.32-6z"/><path d="m44 9h8v7h-8z"/><path d="m60.68 16 .32 6h-9v-6z"/></g><path d="m52 16v6h-2-4-2v-6z" fill="#00eed1"/><path d="m44 9v7h-8.68l.36-7z" fill="#00eed1"/><path d="m44 3h8v6h-8z" fill="#00eed1"/><path d="m60.32 9 .36 7h-8.68v-7z" fill="#00eed1"/><path d="m44 16v6h.308l6.923-6z" fill="#66f5e3"/><path d="m35.32 16-.32 6h1.154l6.923-6z" fill="#90fbff"/><path d="m52 9v6.4l7.385-6.4z" fill="#66f5e3"/><path d="m52 3v5.4l6.231-5.4z" fill="#90fbff"/><path d="m44 3v5.4l6.231-5.4z" fill="#66f5e3"/><path d="m36 3-.302 5.662 6.533-5.662z" fill="#90fbff"/><path d="m35.68 9-.352 6.849 7.903-6.849z" fill="#66f5e3"/><path d="m44 9v6.4l7.385-6.4z" fill="#90fbff"/><path d="m52 16v5.4l6.231-5.4z" fill="#90fbff"/><path d="m28 3 .32 6h-8.32v-6z" fill="#46f8ff"/><path d="m12 3v6h-8.32l.32-6z" fill="#46f8ff"/><path d="m12 16v6h-9l.32-6z" fill="#46f8ff"/><path d="m12 9h8v7h-8z" fill="#46f8ff"/><path d="m28.68 16 .32 6h-9v-6z" fill="#46f8ff"/><path d="m20 16v6h-2-4-2v-6z" fill="#00eed1"/><path d="m12 9v7h-8.68l.36-7z" fill="#00eed1"/><path d="m12 3h8v6h-8z" fill="#00eed1"/><path d="m28.32 9 .36 7h-8.68v-7z" fill="#00eed1"/><path d="m12 16v6h.308l6.923-6z" fill="#66f5e3"/><path d="m3.32 16-.32 6h1.154l6.923-6z" fill="#90fbff"/><path d="m20 9v6.4l7.385-6.4z" fill="#66f5e3"/><path d="m20 3v5.4l6.231-5.4z" fill="#90fbff"/><path d="m12 3v5.4l6.231-5.4z" fill="#66f5e3"/><path d="m4 3-.302 5.662 6.533-5.662z" fill="#90fbff"/><path d="m3.68 9-.352 6.849 7.903-6.849z" fill="#66f5e3"/><path d="m12 9v6.4l7.385-6.4z" fill="#90fbff"/><path d="m20 16v5.4l6.231-5.4z" fill="#90fbff"/><path d="m30 44v4h-24v-4a6 6 0 0 1 6-6h12a6 6 0 0 1 6 6z" fill="#bdfdff"/><path d="m12 38a6 6 0 0 0 -6 6v4h4.333l13.334-10z" fill="#9bfbff"/></g></svg>